<?xml version="1.0" encoding="utf-8"?>
<!-- Generator: Adobe Illustrator 28.1.0, SVG Export Plug-In . SVG Version: 6.00 Build 0)  -->
<svg version="1.1" id="Capa_1" xmlns="http://www.w3.org/2000/svg" xmlns:xlink="http://www.w3.org/1999/xlink" x="0px" y="0px"
	 viewBox="0 0 1080 1080" style="enable-background:new 0 0 1080 1080;" xml:space="preserve">
<style type="text/css">
	.st0{fill:url(#SVGID_1_);stroke:#0071BC;stroke-width:0.63;stroke-miterlimit:10;}
	.st1{fill:url(#SVGID_00000149367425206881953410000016587935312093227658_);}
	.st2{fill:url(#SVGID_00000163752450220830780000000010559873353057317267_);}
	.st3{fill:url(#SVGID_00000087372944170287136890000010298146156463803264_);}
	
		.st4{fill:url(#SVGID_00000052087507309396774780000009400515128728418448_);stroke:#000000;stroke-width:1.6;stroke-miterlimit:10;}
	.st5{fill:url(#SVGID_00000179605970962774679460000012309262155766635414_);}
	.st6{fill:url(#SVGID_00000057115627315591452030000014173659486789646258_);}
	.st7{fill:url(#SVGID_00000005966418615319612260000009195876137036596401_);}
	.st8{fill:url(#SVGID_00000132788687405408590040000016837493783126114213_);}
	
		.st9{fill:url(#SVGID_00000042703760099329654600000011925458054996990879_);stroke:#666666;stroke-width:1.6;stroke-miterlimit:10;}
</style>
<g id="KamiHead">
	
		<radialGradient id="SVGID_1_" cx="549.18" cy="386.18" r="439.1" fx="549.18" fy="-52.92" gradientTransform="matrix(1 0 0 -1 0 1080)" gradientUnits="userSpaceOnUse">
		<stop  offset="0.21" style="stop-color:#34AADC"/>
		<stop  offset="0.35" style="stop-color:#33A1E1"/>
		<stop  offset="0.56" style="stop-color:#3389EE"/>
		<stop  offset="0.64" style="stop-color:#337FF5"/>
		<stop  offset="0.72" style="stop-color:#337BF1"/>
		<stop  offset="0.8" style="stop-color:#356FE5"/>
		<stop  offset="0.88" style="stop-color:#385BD1"/>
		<stop  offset="0.91" style="stop-color:#3A50C7"/>
		<stop  offset="0.96" style="stop-color:#333DBC"/>
		<stop  offset="1" style="stop-color:#3032B6"/>
	</radialGradient>
	<circle class="st0" cx="541.1" cy="664.3" r="364.1"/>
	<g>
		
			<radialGradient id="SVGID_00000005947162782171396330000007879141211265013381_" cx="543.475" cy="897.445" r="95.8161" gradientTransform="matrix(1 0 0 -1 0 1080)" gradientUnits="userSpaceOnUse">
			<stop  offset="0.18" style="stop-color:#454455"/>
			<stop  offset="0.31" style="stop-color:#39384B"/>
			<stop  offset="0.55" style="stop-color:#29283C"/>
			<stop  offset="0.68" style="stop-color:#1A162D"/>
			<stop  offset="0.78" style="stop-color:#140E26"/>
			<stop  offset="0.91" style="stop-color:#080611"/>
			<stop  offset="1" style="stop-color:#000000"/>
		</radialGradient>
		<path style="fill:url(#SVGID_00000005947162782171396330000007879141211265013381_);" d="M578.3,297.4c0,8.9-15.6,16.1-34.9,16.1
			s-34.9-7.2-34.9-16.1c0-0.3,0-0.5,0-0.8c4.3-73.8,8.7-147.6,13-221.4c0-13,9.8-23.6,21.8-23.6s21.8,10.6,21.8,23.6
			c4.3,73.8,8.7,147.6,13,221.4C578.3,296.9,578.3,297.1,578.3,297.4L578.3,297.4z"/>
		
			<radialGradient id="SVGID_00000076580927764634788500000005790091447485147043_" cx="543.48" cy="861.93" r="99.2752" gradientTransform="matrix(1 0 0 -1 0 1080)" gradientUnits="userSpaceOnUse">
			<stop  offset="0.18" style="stop-color:#454455"/>
			<stop  offset="0.31" style="stop-color:#39384B"/>
			<stop  offset="0.55" style="stop-color:#29283C"/>
			<stop  offset="0.68" style="stop-color:#1A162D"/>
			<stop  offset="0.78" style="stop-color:#140E26"/>
			<stop  offset="0.91" style="stop-color:#080611"/>
			<stop  offset="1" style="stop-color:#000000"/>
		</radialGradient>
		<path style="fill:url(#SVGID_00000076580927764634788500000005790091447485147043_);" d="M583.1,336.2c0,9.1-17.7,16.5-39.6,16.5
			s-39.6-7.4-39.6-16.5c0-0.3,0-0.6,0.1-0.9c4.9-75.9,9.9-151.8,14.8-227.7c0-13.4,11.1-24.3,24.8-24.3s24.8,10.9,24.8,24.3
			c4.9,75.9,9.9,151.8,14.8,227.7C583.1,335.6,583.1,335.9,583.1,336.2L583.1,336.2z"/>
		
			<radialGradient id="SVGID_00000090981635210921154760000017162500515071247250_" cx="543.485" cy="711.86" r="74.3384" gradientTransform="matrix(1 0 0 -1 0 1080)" gradientUnits="userSpaceOnUse">
			<stop  offset="0.18" style="stop-color:#454455"/>
			<stop  offset="0.31" style="stop-color:#39384B"/>
			<stop  offset="0.55" style="stop-color:#29283C"/>
			<stop  offset="0.68" style="stop-color:#1A162D"/>
			<stop  offset="0.78" style="stop-color:#140E26"/>
			<stop  offset="0.91" style="stop-color:#080611"/>
			<stop  offset="1" style="stop-color:#000000"/>
		</radialGradient>
		<path style="fill:url(#SVGID_00000090981635210921154760000017162500515071247250_);" d="M585.2,429.9c0,19.2-18.7,34.8-41.7,34.8
			s-41.7-15.6-41.7-34.8c0.3-2.4,0.6-4.7,0.9-7c5-41.3,10.1-82.5,15.1-123.8c0-0.5,0-1,0-1.6c0-14.2,11.5-25.8,25.8-25.8
			s25.6,11.3,25.8,25.4c5,42,10.1,83.9,15.1,125.9C584.6,425.3,584.9,427.6,585.2,429.9L585.2,429.9z"/>
	</g>
	<g>
		
			<radialGradient id="SVGID_00000100351630308541733990000005520401480846481070_" cx="541.2117" cy="377.41" r="157.293" fx="383.9786" fy="377.41" gradientTransform="matrix(2.966619e-02 0.9996 2.259 -6.704559e-02 -328.3058 186.9392)" gradientUnits="userSpaceOnUse">
			<stop  offset="0.26" style="stop-color:#4C4862"/>
			<stop  offset="0.45" style="stop-color:#3F3958"/>
			<stop  offset="0.59" style="stop-color:#342C50"/>
			<stop  offset="0.62" style="stop-color:#30294A"/>
			<stop  offset="0.8" style="stop-color:#201F34"/>
			<stop  offset="0.87" style="stop-color:#24243D"/>
			<stop  offset="1" style="stop-color:#2F3156"/>
			<stop  offset="1" style="stop-color:#303257"/>
		</radialGradient>
		
			<path style="fill:url(#SVGID_00000100351630308541733990000005520401480846481070_);stroke:#000000;stroke-width:1.6;stroke-miterlimit:10;" d="
			M872.8,702.6c0,20.3-7.7,38.7-20.1,52c-12.5,13.3-29.6,21.5-48.6,21.5H278.2c-38,0-68.8-33-68.8-73.6s30.8-73.6,68.8-73.6h525.9
			C842,629,872.8,662,872.8,702.6z"/>
		<g>
			
				<linearGradient id="SVGID_00000031171893784579895820000012404056424515589762_" gradientUnits="userSpaceOnUse" x1="725.8322" y1="302.1201" x2="727.3721" y2="502.7701" gradientTransform="matrix(1 0 0 -1 0 1080)">
				<stop  offset="9.000000e-02" style="stop-color:#E0D326"/>
				<stop  offset="0.24" style="stop-color:#E3AE28"/>
				<stop  offset="0.5" style="stop-color:#EA732D"/>
				<stop  offset="0.54" style="stop-color:#F06C29"/>
				<stop  offset="0.65" style="stop-color:#FB6023"/>
				<stop  offset="0.77" style="stop-color:#FF5D22"/>
			</linearGradient>
			
				<rect x="679.7" y="629" style="fill:url(#SVGID_00000031171893784579895820000012404056424515589762_);" width="93.5" height="147.2"/>
			
				<linearGradient id="SVGID_00000023252446120152522180000002488457584200344705_" gradientUnits="userSpaceOnUse" x1="356.7984" y1="261.0201" x2="360.5584" y2="458.89" gradientTransform="matrix(1 0 0 -1 0 1080)">
				<stop  offset="0.31" style="stop-color:#E0D326"/>
				<stop  offset="0.45" style="stop-color:#E3AE28"/>
				<stop  offset="0.71" style="stop-color:#EA732D"/>
				<stop  offset="0.75" style="stop-color:#F06C29"/>
				<stop  offset="0.88" style="stop-color:#FB6023"/>
				<stop  offset="1" style="stop-color:#FF5D22"/>
			</linearGradient>
			
				<rect x="312.3" y="629" style="fill:url(#SVGID_00000023252446120152522180000002488457584200344705_);" width="93.5" height="147.2"/>
			<g>
				
					<linearGradient id="SVGID_00000033337763492702840260000000998006146404113820_" gradientUnits="userSpaceOnUse" x1="725.4827" y1="255.79" x2="727.0127" y2="456.4501" gradientTransform="matrix(1 0 0 -1 0 1080)">
					<stop  offset="0.74" style="stop-color:#201F34;stop-opacity:0"/>
					<stop  offset="0.82" style="stop-color:#201F34;stop-opacity:0.21"/>
					<stop  offset="0.95" style="stop-color:#201F34;stop-opacity:0.77"/>
					<stop  offset="1" style="stop-color:#201F34"/>
				</linearGradient>
				
					<rect x="679.7" y="629" style="fill:url(#SVGID_00000033337763492702840260000000998006146404113820_);" width="93.5" height="147.2"/>
				
					<linearGradient id="SVGID_00000008865734273086580110000007186940353701148035_" gradientUnits="userSpaceOnUse" x1="356.7984" y1="261.0201" x2="360.5584" y2="458.89" gradientTransform="matrix(1 0 0 -1 0 1080)">
					<stop  offset="0.74" style="stop-color:#201F34;stop-opacity:0"/>
					<stop  offset="0.82" style="stop-color:#201F34;stop-opacity:0.21"/>
					<stop  offset="0.95" style="stop-color:#201F34;stop-opacity:0.77"/>
					<stop  offset="1" style="stop-color:#201F34"/>
				</linearGradient>
				
					<rect x="312.3" y="629" style="fill:url(#SVGID_00000008865734273086580110000007186940353701148035_);" width="93.5" height="147.2"/>
			</g>
		</g>
		
			<radialGradient id="SVGID_00000113333720097188569220000014220072955401518216_" cx="547.33" cy="389.81" r="162.47" fx="397.26" fy="389.81" gradientTransform="matrix(-3.490598e-03 1 3.39 1.183313e-02 -769.3979 138.2602)" gradientUnits="userSpaceOnUse">
			<stop  offset="0.21" style="stop-color:#FFFFFF"/>
			<stop  offset="0.37" style="stop-color:#F9F9FB"/>
			<stop  offset="0.57" style="stop-color:#E9EAF3"/>
			<stop  offset="0.8" style="stop-color:#CED0E4"/>
			<stop  offset="0.88" style="stop-color:#C4C7DF"/>
			<stop  offset="1" style="stop-color:#B5B3CE"/>
		</radialGradient>
		
			<path style="fill:url(#SVGID_00000113333720097188569220000014220072955401518216_);stroke:#666666;stroke-width:1.6;stroke-miterlimit:10;" d="
			M941.8,651.4h-2v-23.7c0-37.6-28.8-68.4-63.9-68.4H210c-35.2,0-63.9,30.8-63.9,68.4v23.8c-0.2,0-0.4,0-0.5,0h-3.4
			c-15.9,0-28.9,13.9-28.9,30.9v40.5c0,17,13,30.9,28.9,30.9h3.4c0.2,0,0.4,0,0.5,0v23.8c0,37.6,28.8,68.4,63.9,68.4h665.9
			c35.2,0,63.9-30.8,63.9-68.4v-23.7h2c15,0,27.2-13.1,27.2-29.1v-44.1C969.1,664.6,956.8,651.5,941.8,651.4L941.8,651.4z
			 M854.5,754.6c-12.5,13.3-29.6,21.5-48.6,21.5H280c-38,0-68.8-33-68.8-73.6S242,629,280,629h525.9c38,0,68.8,33,68.8,73.6
			C874.6,722.9,866.9,741.3,854.5,754.6z"/>
	</g>
</g>
</svg>
