<?xml version="1.0" encoding="utf-8"?>
<!-- Generator: Adobe Illustrator 28.1.0, SVG Export Plug-In . SVG Version: 6.00 Build 0)  -->
<svg version="1.1" id="Capa_1" xmlns="http://www.w3.org/2000/svg" xmlns:xlink="http://www.w3.org/1999/xlink" x="0px" y="0px"
	 viewBox="0 0 1080 1080" style="enable-background:new 0 0 1080 1080;" xml:space="preserve">
<style type="text/css">
	.st0{fill-rule:evenodd;clip-rule:evenodd;fill:url(#NFID_00000101065860037951639880000005354955214423218872_);}
</style>
<linearGradient id="NFID_00000147181768761175504980000005259808480120407941_" gradientUnits="userSpaceOnUse" x1="384.0581" y1="309.0113" x2="717.9381" y2="795.7613" gradientTransform="matrix(1 0 0 1 0 2)">
	<stop  offset="0" style="stop-color:#CC5CDC"/>
	<stop  offset="0.24" style="stop-color:#7B66FF"/>
	<stop  offset="0.52" style="stop-color:#1F8AF0"/>
	<stop  offset="0.76" style="stop-color:#00D1FF"/>
	<stop  offset="1" style="stop-color:#3DEDD7"/>
</linearGradient>
<path id="NFID" style="fill-rule:evenodd;clip-rule:evenodd;fill:url(#NFID_00000147181768761175504980000005259808480120407941_);" d="
	M295.5,101.2c13.3-1.4,22.9-13.3,21.5-26.5c-1.4-13.2-13.3-22.8-26.6-21.4L241,58.5c-25.3,2.7-45.5,4.8-62,7.8
	c-17,3.1-31.5,7.2-45,14.8c-21.9,12.2-40.1,30.2-52.6,51.9c-7.7,13.4-12,27.8-15.2,44.7c-3.1,16.4-5.5,36.5-8.4,61.7l-0.1,1.1
	l-4.8,48c-1.3,13.2,8.3,25,21.6,26.4s25.1-8.3,26.5-21.5l4.8-47.7c3-26.2,5.2-44.5,7.9-58.9c2.7-14.1,5.7-22.8,9.7-29.8
	c8.1-14.2,20-25.9,34.3-33.8c7-3.9,15.8-6.8,30-9.4c14.5-2.6,33-4.6,59.4-7.4L295.5,101.2L295.5,101.2z M765.3,74.7
	c-1.4,13.2,8.2,25.1,21.5,26.5l48.4,5.2c26.4,2.8,44.9,4.8,59.4,7.4c14.2,2.6,23,5.5,30,9.4c14.3,8,26.1,19.7,34.3,33.8
	c4,7,7,15.6,9.7,29.8c2.8,14.4,4.9,32.8,7.9,58.9l4.8,47.7c1.3,13.2,13.2,22.9,26.5,21.5c13.3-1.3,22.9-13.1,21.6-26.4l-4.8-48
	l-0.1-1.1c-2.9-25.1-5.2-45.3-8.4-61.7c-3.2-16.9-7.5-31.3-15.2-44.7c-12.5-21.7-30.7-39.7-52.6-51.9c-13.5-7.5-28-11.7-45-14.8
	c-16.5-3-36.7-5.1-62-7.8l-49.3-5.2C778.7,51.9,766.8,61.4,765.3,74.7L765.3,74.7z M765.3,1005.3c-1.4-13.2,8.2-25.1,21.5-26.5
	l48.4-5.1c26.4-2.8,44.9-4.8,59.4-7.4c14.2-2.6,23-5.5,30-9.4c14.3-8,26.1-19.7,34.3-33.8c4-7,7-15.6,9.7-29.8
	c2.8-14.4,4.9-32.8,7.9-58.9l4.8-47.7c1.3-13.2,13.2-22.9,26.5-21.5c13.3,1.3,22.9,13.1,21.6,26.4l-4.8,48l-0.1,1.1
	c-2.9,25.1-5.2,45.3-8.4,61.7c-3.2,16.9-7.5,31.3-15.2,44.7c-12.5,21.7-30.7,39.7-52.6,51.9c-13.5,7.5-28,11.7-45,14.8
	c-16.5,3-36.7,5.1-62,7.8l-49.3,5.2C778.7,1028.1,766.8,1018.6,765.3,1005.3L765.3,1005.3z M316.9,1005.3
	c1.4-13.2-8.2-25.1-21.5-26.5l-48.4-5.1c-26.4-2.8-44.9-4.8-59.4-7.4c-14.2-2.6-23-5.5-30-9.4c-14.3-8-26.1-19.7-34.3-33.8
	c-4-7-7-15.6-9.7-29.8c-2.8-14.4-4.9-32.8-7.9-58.9l-4.8-47.7c-1.3-13.2-13.2-22.9-26.4-21.5s-23,13.1-21.6,26.4l4.8,48l0.1,1.1
	c2.9,25.1,5.2,45.3,8.4,61.7c3.2,16.9,7.6,31.3,15.2,44.7c12.5,21.7,30.7,39.7,52.6,51.9c13.5,7.5,28,11.7,45,14.8
	c16.5,3,36.7,5.1,62,7.8l0,0l49.3,5.2C303.6,1028.1,315.5,1018.6,316.9,1005.3L316.9,1005.3z M303.8,354.3
	c-11.5,0-20.8,9.3-20.8,20.8v336.8c0,11.5,9.3,20.8,20.8,20.8h65.8c11.5,0,20.8-9.3,20.8-20.8V375.1c0-11.5-9.3-20.8-20.8-20.8
	L303.8,354.3L303.8,354.3z M481.6,354.3c-11.5,0-20.8,9.3-20.8,20.8v336.8c0,11.5,9.3,20.8,20.8,20.8h158.7
	c41.6,0,78.4-7.8,110.6-23.2c32.2-15.5,57.1-37.5,74.8-66c17.7-28.5,26.6-61.8,26.6-100s-8.9-71.5-26.6-100s-42.7-50.5-74.8-66
	c-32.2-15.5-69-23.2-110.6-23.2L481.6,354.3L481.6,354.3z M714.1,619.7c-19.5,18.4-45.5,27.6-78.1,27.6h-61.5
	c-3.4,0-6.2-2.8-6.2-6.2V446c0-3.4,2.8-6.2,6.2-6.2H636c32.5,0,58.6,9.2,78.1,27.6c19.9,18.4,29.8,43.8,29.8,76.2
	S734,601.4,714.1,619.7L714.1,619.7z"/>
</svg>
