<?xml version="1.0" encoding="utf-8"?>
<!-- Generator: Adobe Illustrator 28.1.0, SVG Export Plug-In . SVG Version: 6.00 Build 0)  -->
<svg version="1.1" id="Capa_1" xmlns="http://www.w3.org/2000/svg" xmlns:xlink="http://www.w3.org/1999/xlink" x="0px" y="0px"
	 viewBox="0 0 1080 1080" style="enable-background:new 0 0 1080 1080;" xml:space="preserve">
<style type="text/css">
	.st0{fill:url(#Nuance_00000104705149205236941370000009574950624140512390_);}
</style>
<linearGradient id="Nuance_00000054265007609723243260000011578197133335172994_" gradientUnits="userSpaceOnUse" x1="576.8218" y1="208.4201" x2="529.8917" y2="1086.1001" gradientTransform="matrix(-0.6108 -0.7918 -0.7918 0.6108 1271.7274 674.1467)">
	<stop  offset="0" style="stop-color:#25F58C"/>
	<stop  offset="0.47" style="stop-color:#1FD5C8"/>
	<stop  offset="0.73" style="stop-color:#1DCBD9"/>
	<stop  offset="1" style="stop-color:#1BBFF1"/>
</linearGradient>
<path id="Nuance" style="fill:url(#Nuance_00000054265007609723243260000011578197133335172994_);" d="M251.8,1080l-139.7-0.4
	l0.4-139.7l139.7,0.4L251.8,1080z M149.3,806.9l-95-0.3l-0.3,95l95,0.3L149.3,806.9z M78.8,653.7l65.2,0.2l0.2-65.8L79,587.9
	L78.8,653.7L78.8,653.7L78.8,653.7z M750.6,756.8l-132.3-0.4l-0.4,132.3l132.3,0.4L750.6,756.8L750.6,756.8z M929,876l-132.3-0.4
	l-0.4,132.3l132.3,0.4L929,876z M994.2,633.9l-132.3-0.4l-0.4,132.3l132.3,0.4L994.2,633.9z M457.6,730.2l-132.3-0.4l-0.4,132.3
	l132.3,0.4L457.6,730.2L457.6,730.2z M292,971.4l65.2,0.2l0.2-65.8l-65.2-0.2L292,971.4z M478.3,729.8l63.6,0.2l0.2-64.2l-63.6-0.2
	L478.3,729.8z M830,590.2l65.2,0.2l0.2-65.8l-65.2-0.2L830,590.2z M962.8,888.5l65.2,0.2l0.2-65.8l-65.2-0.2L962.8,888.5
	L962.8,888.5z M894.5,268.1L894.5,268.1l-0.2,68.1l0,0L893.9,493l-105.9-0.3l-0.6,199.9l-105.9-0.3l1-356.8
	c-0.4-19.5-7.9-42.4-8.4-43.9c-5-15-15-43.9-42.6-67.7c-34.7-30-74.9-32.6-88.8-32.8c-10.4-0.1-42.5-0.1-74.4,19.9
	c-39.3,24.8-61.9,70-63.6,113.5l-1,359l-172.4-0.5l-0.5,171.5l-37-0.1l0.5-171.5H194l0.2-62l87.5,0.2l0.4-130.1l-87.6-0.2l1.3-479.2
	l204.1,0.6l-0.2,76.3C450.2,37,527.3,3.9,606.5,0.3C757.9-6.6,882.7,110.4,894.5,268.1L894.5,268.1L894.5,268.1z"/>
</svg>
